<svg width="512" height="460" viewBox="0 0 512 460" fill="none" xmlns="http://www.w3.org/2000/svg">
<path fill-rule="evenodd" clip-rule="evenodd" d="M500.403 122.858C503.815 145.149 495.589 173.554 456.916 193.584V307.49C454.78 322.075 447.957 325.801 429.019 325.864H224.78C203.227 325.482 200.23 320.929 199.497 307.49V191.801C164.044 175.433 156.328 149.989 157.221 127.89C160.218 53.9158 241.996 10.4486 329.386 10.8308C414.799 11.181 489.308 49.7124 500.531 122.858H500.403ZM345.806 58.0874C348.78 58.1126 351.681 59.018 354.141 60.689C356.601 62.3601 358.51 64.7218 359.626 67.476C360.743 70.2301 361.017 73.253 360.414 76.1627C359.811 79.0724 358.359 81.7384 356.24 83.8238C354.12 85.9092 351.43 87.3205 348.508 87.8794C345.586 88.4383 342.564 88.1196 339.824 86.9637C337.083 85.8078 334.747 83.8666 333.111 81.3852C331.474 78.9037 330.611 75.9936 330.63 73.0223C330.63 69.036 332.215 65.2129 335.037 62.3942C337.859 59.5754 341.687 57.9919 345.678 57.9919L345.806 58.0874ZM418.274 336.851C412.877 337.984 407.369 338.507 401.855 338.411H196.468C183.907 338.092 176.223 336.214 170.962 332.042C164.586 326.915 163.056 320.355 162.545 310.898V310.42V200.622C148.529 193.765 136.858 182.918 129.005 169.446C122.471 157.454 119.423 143.877 120.206 130.246C121.864 91.5556 142.842 60.5075 174.629 39.0128C202.462 20.0974 238.681 8.34692 277.163 4.93961C294.341 1.56353 311.815 -0.0899629 329.322 0.00377199C375.871 0.194837 419.518 11.3403 452.42 32.8987C483.665 53.2789 505.281 82.7984 511.148 121.234C513.748 137.633 510.353 154.418 501.583 168.523C493.102 181.659 481.461 192.465 467.724 199.953V307.49C467.718 308.261 467.632 309.03 467.469 309.783C465.875 319.941 462.208 326.66 455.035 331.246C448.658 335.258 440.496 336.66 428.987 336.691L418.274 336.851Z" fill="black"/>
<path fill-rule="evenodd" clip-rule="evenodd" d="M500.403 122.858C503.815 145.149 495.589 173.554 456.916 193.584V307.49C454.78 322.075 447.957 325.801 429.019 325.864H224.78C203.227 325.482 200.23 320.929 199.497 307.49V191.801C164.044 175.433 156.328 149.989 157.221 127.89C160.218 53.9158 241.996 10.4486 329.386 10.8308C414.799 11.181 489.308 49.7124 500.531 122.858H500.403ZM354.141 60.689C351.681 59.018 348.78 58.1126 345.806 58.0874L345.678 57.9919C341.687 57.9919 337.859 59.5754 335.037 62.3942C332.215 65.2129 330.63 69.036 330.63 73.0223C330.611 75.9936 331.474 78.9037 333.111 81.3852C334.747 83.8666 337.083 85.8078 339.824 86.9637C342.564 88.1196 345.586 88.4383 348.508 87.8794C351.43 87.3205 354.12 85.9092 356.24 83.8238C358.359 81.7384 359.811 79.0724 360.414 76.1627C361.017 73.253 360.743 70.2301 359.626 67.476C358.51 64.7218 356.601 62.3601 354.141 60.689Z" fill="black"/>
<path fill-rule="evenodd" clip-rule="evenodd" d="M500.403 122.858C503.815 145.149 495.589 173.554 456.916 193.584V307.49C454.78 322.075 447.957 325.801 429.019 325.864H224.78C203.227 325.482 200.23 320.929 199.497 307.49V191.801C164.044 175.433 156.328 149.989 157.221 127.89C160.218 53.9158 241.996 10.4486 329.386 10.8308C414.799 11.181 489.308 49.7124 500.531 122.858H500.403ZM354.141 60.689C351.681 59.018 348.78 58.1126 345.806 58.0874L345.678 57.9919C341.687 57.9919 337.859 59.5754 335.037 62.3942C332.215 65.2129 330.63 69.036 330.63 73.0223C330.611 75.9936 331.474 78.9037 333.111 81.3852C334.747 83.8666 337.083 85.8078 339.824 86.9637C342.564 88.1196 345.586 88.4383 348.508 87.8794C351.43 87.3205 354.12 85.9092 356.24 83.8238C358.359 81.7384 359.811 79.0724 360.414 76.1627C361.017 73.253 360.743 70.2301 359.626 67.476C358.51 64.7218 356.601 62.3601 354.141 60.689Z" fill="#425466"/>
<path fill-rule="evenodd" clip-rule="evenodd" d="M399.668 136.776C409.823 156.91 410.81 186.466 380.252 217.499L415.57 325.792C418.061 340.32 412.729 345.978 394.744 351.91L200.57 415.235C179.962 421.554 175.7 418.154 170.837 405.606L134.967 295.617C96.1857 291.049 80.9616 269.251 74.9582 247.964C54.8716 176.706 119.143 110.025 202.344 83.2933C283.657 57.1437 366.441 70.6744 399.789 136.736L399.668 136.776ZM301.763 206.956C308.21 204.853 315.135 204.708 321.662 206.539C328.189 208.37 334.024 212.095 338.429 217.241C342.834 222.388 345.611 228.726 346.408 235.452C347.206 242.178 345.987 248.991 342.908 255.029C339.828 261.066 335.026 266.056 329.108 269.368C323.191 272.679 316.424 274.164 309.665 273.632C302.906 273.101 296.457 270.579 291.136 266.384C285.815 262.189 281.86 256.511 279.772 250.067C278.384 245.796 277.851 241.293 278.205 236.815C278.558 232.337 279.791 227.971 281.833 223.968C283.875 219.965 286.686 216.402 290.106 213.483C293.525 210.564 297.486 208.346 301.763 206.956ZM310.249 302.696C312.575 301.938 315.074 301.885 317.429 302.545C319.784 303.205 321.889 304.548 323.48 306.404C325.07 308.26 326.073 310.546 326.362 312.973C326.651 315.399 326.214 317.858 325.105 320.037C323.996 322.216 322.265 324.018 320.132 325.216C317.998 326.413 315.558 326.951 313.119 326.763C310.68 326.575 308.352 325.668 306.43 324.158C304.507 322.648 303.077 320.602 302.319 318.278C301.303 315.163 301.568 311.771 303.055 308.849C304.542 305.927 307.13 303.714 310.249 302.696ZM216.847 283.652C221.044 282.283 225.551 282.188 229.8 283.379C234.049 284.57 237.848 286.993 240.716 290.341C243.585 293.69 245.395 297.814 245.917 302.192C246.439 306.57 245.65 311.005 243.649 314.936C241.648 318.868 238.526 322.119 234.676 324.279C230.827 326.439 226.424 327.411 222.024 327.071C217.624 326.732 213.424 325.096 209.956 322.372C206.488 319.647 203.908 315.955 202.541 311.764C200.708 306.143 201.185 300.024 203.868 294.752C206.551 289.48 211.22 285.487 216.847 283.652ZM185.593 187.097C189.562 185.803 193.824 185.713 197.843 186.839C201.861 187.965 205.453 190.256 208.166 193.423C210.879 196.59 212.591 200.49 213.085 204.63C213.578 208.771 212.832 212.965 210.94 216.683C209.047 220.401 206.095 223.476 202.454 225.519C198.814 227.562 194.65 228.481 190.489 228.159C186.327 227.838 182.356 226.291 179.076 223.715C175.796 221.138 173.356 217.647 172.063 213.683C170.33 208.367 170.781 202.58 173.318 197.594C175.856 192.609 180.271 188.832 185.593 187.097ZM123.82 205.501C125.785 204.887 127.886 204.867 129.861 205.444C131.835 206.021 133.594 207.169 134.916 208.743C136.238 210.318 137.064 212.248 137.289 214.291C137.515 216.334 137.13 218.399 136.183 220.224C135.236 222.05 133.77 223.556 131.969 224.551C130.168 225.547 128.113 225.987 126.062 225.818C124.012 225.649 122.058 224.877 120.446 223.6C118.835 222.323 117.638 220.598 117.006 218.642C116.153 216.025 116.375 213.175 117.624 210.72C118.874 208.264 121.048 206.405 123.669 205.55L123.82 205.501ZM325.849 146.313C329.141 145.24 332.676 145.165 336.008 146.099C339.34 147.033 342.32 148.933 344.57 151.559C346.819 154.186 348.239 157.42 348.648 160.854C349.058 164.287 348.439 167.766 346.869 170.849C345.3 173.933 342.851 176.483 339.833 178.177C336.814 179.871 333.36 180.633 329.909 180.366C326.458 180.1 323.165 178.817 320.445 176.68C317.725 174.543 315.701 171.648 314.629 168.361C313.191 163.953 313.566 159.153 315.67 155.019C317.774 150.884 321.436 147.752 325.849 146.313ZM232.607 123.13C235.443 122.232 238.481 122.193 241.338 123.019C244.195 123.845 246.742 125.499 248.657 127.771C250.573 130.043 251.77 132.832 252.1 135.785C252.429 138.738 251.874 141.723 250.506 144.363C249.138 147.003 247.018 149.179 244.413 150.616C241.809 152.053 238.837 152.687 235.873 152.438C232.909 152.189 230.086 151.068 227.761 149.216C225.436 147.364 223.713 144.865 222.809 142.034C221.573 138.245 221.895 134.118 223.704 130.563C225.513 127.009 228.661 124.316 232.456 123.079L232.607 123.13ZM387.936 365.686C383.156 368.437 378.082 370.643 372.809 372.261L177.544 435.942C165.503 439.534 157.615 440.13 151.32 437.795C143.669 434.898 140.18 429.136 136.762 420.302L136.614 419.848L102.571 315.461C87.1192 313.288 72.6604 306.594 61.0175 296.221C51.0874 286.845 43.98 274.882 40.4975 261.681C30.0775 224.383 40.3958 188.361 63.9516 158.069C84.5485 131.456 115.339 109.055 150.868 93.8845C166.153 85.3485 182.253 78.3588 198.927 73.0196C243.24 58.7688 288.192 55.8321 326.158 66.1265C362.182 75.8148 391.885 97.1774 409.38 131.9C416.936 146.684 418.913 163.695 414.948 179.824C410.958 194.943 403.241 208.825 392.503 220.203L425.845 322.441C426.078 323.176 426.235 323.933 426.313 324.7C427.947 334.852 426.545 342.377 421.147 348.96C416.328 354.752 409.003 358.615 398.071 362.214L387.936 365.686Z" fill="black"/>
<path fill-rule="evenodd" clip-rule="evenodd" d="M399.668 136.776C409.823 156.91 410.81 186.466 380.252 217.499L415.57 325.792C418.061 340.32 412.729 345.978 394.744 351.91L200.57 415.235C179.962 421.554 175.7 418.154 170.837 405.606L134.967 295.617C96.1857 291.049 80.9616 269.251 74.9582 247.964C54.8716 176.706 119.143 110.025 202.344 83.2933C283.657 57.1437 366.441 70.6744 399.789 136.736L399.668 136.776ZM321.662 206.539C315.135 204.708 308.21 204.853 301.763 206.956C297.486 208.346 293.525 210.564 290.106 213.483C286.686 216.402 283.875 219.965 281.833 223.968C279.791 227.971 278.558 232.337 278.205 236.815C277.851 241.293 278.384 245.796 279.772 250.067C281.86 256.511 285.815 262.189 291.136 266.384C296.457 270.579 302.906 273.101 309.665 273.632C316.424 274.164 323.191 272.679 329.108 269.368C335.026 266.056 339.828 261.066 342.908 255.029C345.987 248.991 347.206 242.178 346.408 235.452C345.611 228.726 342.834 222.388 338.429 217.241C334.024 212.095 328.189 208.37 321.662 206.539ZM317.429 302.545C315.074 301.885 312.575 301.938 310.249 302.696C307.13 303.714 304.542 305.927 303.055 308.849C301.568 311.771 301.303 315.163 302.319 318.278C303.077 320.602 304.507 322.648 306.43 324.158C308.352 325.668 310.68 326.575 313.119 326.763C315.558 326.951 317.998 326.413 320.132 325.216C322.265 324.018 323.996 322.216 325.105 320.037C326.214 317.858 326.651 315.399 326.362 312.973C326.073 310.546 325.07 308.26 323.48 306.404C321.889 304.548 319.784 303.205 317.429 302.545ZM229.8 283.379C225.551 282.188 221.044 282.283 216.847 283.652C211.22 285.487 206.551 289.48 203.868 294.752C201.185 300.024 200.708 306.143 202.541 311.764C203.908 315.955 206.488 319.647 209.956 322.372C213.424 325.096 217.624 326.732 222.024 327.071C226.424 327.411 230.827 326.439 234.676 324.279C238.526 322.119 241.648 318.868 243.649 314.936C245.65 311.005 246.439 306.57 245.917 302.192C245.395 297.814 243.585 293.69 240.716 290.341C237.848 286.993 234.049 284.57 229.8 283.379ZM197.843 186.839C193.824 185.713 189.562 185.803 185.593 187.097C180.271 188.832 175.856 192.609 173.318 197.594C170.781 202.58 170.33 208.367 172.063 213.683C173.356 217.647 175.796 221.138 179.076 223.715C182.356 226.291 186.327 227.838 190.489 228.159C194.65 228.481 198.814 227.562 202.454 225.519C206.095 223.476 209.047 220.401 210.94 216.683C212.832 212.965 213.578 208.771 213.085 204.63C212.591 200.49 210.879 196.59 208.166 193.423C205.453 190.256 201.861 187.965 197.843 186.839ZM129.861 205.444C127.886 204.867 125.785 204.887 123.82 205.501L123.669 205.55C121.048 206.405 118.874 208.264 117.624 210.72C116.375 213.175 116.153 216.025 117.006 218.642C117.638 220.598 118.835 222.323 120.446 223.6C122.058 224.877 124.012 225.649 126.062 225.818C128.113 225.987 130.168 225.547 131.969 224.551C133.77 223.556 135.236 222.05 136.183 220.224C137.13 218.399 137.515 216.334 137.289 214.291C137.064 212.248 136.238 210.318 134.916 208.743C133.594 207.169 131.835 206.021 129.861 205.444ZM336.008 146.099C332.676 145.165 329.141 145.24 325.849 146.313C321.436 147.752 317.774 150.884 315.67 155.019C313.566 159.153 313.191 163.953 314.629 168.361C315.701 171.648 317.725 174.543 320.445 176.68C323.165 178.817 326.458 180.1 329.909 180.366C333.36 180.633 336.814 179.871 339.833 178.177C342.851 176.483 345.3 173.933 346.869 170.849C348.439 167.766 349.058 164.287 348.648 160.854C348.239 157.42 346.819 154.186 344.57 151.559C342.32 148.933 339.34 147.033 336.008 146.099ZM241.338 123.019C238.481 122.193 235.443 122.232 232.607 123.13L232.456 123.079C228.661 124.316 225.513 127.009 223.704 130.563C221.895 134.118 221.573 138.245 222.809 142.034C223.713 144.865 225.436 147.364 227.761 149.216C230.086 151.068 232.909 152.189 235.873 152.438C238.837 152.687 241.809 152.053 244.413 150.616C247.018 149.179 249.138 147.003 250.506 144.363C251.874 141.723 252.429 138.738 252.1 135.785C251.77 132.832 250.573 130.043 248.657 127.771C246.742 125.499 244.195 123.845 241.338 123.019Z" fill="black"/>
<path fill-rule="evenodd" clip-rule="evenodd" d="M399.668 136.776C409.823 156.91 410.81 186.466 380.252 217.499L415.57 325.792C418.061 340.32 412.729 345.978 394.744 351.91L200.57 415.235C179.962 421.554 175.7 418.154 170.837 405.606L134.967 295.617C96.1857 291.049 80.9616 269.251 74.9582 247.964C54.8716 176.706 119.143 110.025 202.344 83.2933C283.657 57.1437 366.441 70.6744 399.789 136.736L399.668 136.776ZM321.662 206.539C315.135 204.708 308.21 204.853 301.763 206.956C297.486 208.346 293.525 210.564 290.106 213.483C286.686 216.402 283.875 219.965 281.833 223.968C279.791 227.971 278.558 232.337 278.205 236.815C277.851 241.293 278.384 245.796 279.772 250.067C281.86 256.511 285.815 262.189 291.136 266.384C296.457 270.579 302.906 273.101 309.665 273.632C316.424 274.164 323.191 272.679 329.108 269.368C335.026 266.056 339.828 261.066 342.908 255.029C345.987 248.991 347.206 242.178 346.408 235.452C345.611 228.726 342.834 222.388 338.429 217.241C334.024 212.095 328.189 208.37 321.662 206.539ZM317.429 302.545C315.074 301.885 312.575 301.938 310.249 302.696C307.13 303.714 304.542 305.927 303.055 308.849C301.568 311.771 301.303 315.163 302.319 318.278C303.077 320.602 304.507 322.648 306.43 324.158C308.352 325.668 310.68 326.575 313.119 326.763C315.558 326.951 317.998 326.413 320.132 325.216C322.265 324.018 323.996 322.216 325.105 320.037C326.214 317.858 326.651 315.399 326.362 312.973C326.073 310.546 325.07 308.26 323.48 306.404C321.889 304.548 319.784 303.205 317.429 302.545ZM229.8 283.379C225.551 282.188 221.044 282.283 216.847 283.652C211.22 285.487 206.551 289.48 203.868 294.752C201.185 300.024 200.708 306.143 202.541 311.764C203.908 315.955 206.488 319.647 209.956 322.372C213.424 325.096 217.624 326.732 222.024 327.071C226.424 327.411 230.827 326.439 234.676 324.279C238.526 322.119 241.648 318.868 243.649 314.936C245.65 311.005 246.439 306.57 245.917 302.192C245.395 297.814 243.585 293.69 240.716 290.341C237.848 286.993 234.049 284.57 229.8 283.379ZM197.843 186.839C193.824 185.713 189.562 185.803 185.593 187.097C180.271 188.832 175.856 192.609 173.318 197.594C170.781 202.58 170.33 208.367 172.063 213.683C173.356 217.647 175.796 221.138 179.076 223.715C182.356 226.291 186.327 227.838 190.489 228.159C194.65 228.481 198.814 227.562 202.454 225.519C206.095 223.476 209.047 220.401 210.94 216.683C212.832 212.965 213.578 208.771 213.085 204.63C212.591 200.49 210.879 196.59 208.166 193.423C205.453 190.256 201.861 187.965 197.843 186.839ZM129.861 205.444C127.886 204.867 125.785 204.887 123.82 205.501L123.669 205.55C121.048 206.405 118.874 208.264 117.624 210.72C116.375 213.175 116.153 216.025 117.006 218.642C117.638 220.598 118.835 222.323 120.446 223.6C122.058 224.877 124.012 225.649 126.062 225.818C128.113 225.987 130.168 225.547 131.969 224.551C133.77 223.556 135.236 222.05 136.183 220.224C137.13 218.399 137.515 216.334 137.289 214.291C137.064 212.248 136.238 210.318 134.916 208.743C133.594 207.169 131.835 206.021 129.861 205.444ZM336.008 146.099C332.676 145.165 329.141 145.24 325.849 146.313C321.436 147.752 317.774 150.884 315.67 155.019C313.566 159.153 313.191 163.953 314.629 168.361C315.701 171.648 317.725 174.543 320.445 176.68C323.165 178.817 326.458 180.1 329.909 180.366C333.36 180.633 336.814 179.871 339.833 178.177C342.851 176.483 345.3 173.933 346.869 170.849C348.439 167.766 349.058 164.287 348.648 160.854C348.239 157.42 346.819 154.186 344.57 151.559C342.32 148.933 339.34 147.033 336.008 146.099ZM241.338 123.019C238.481 122.193 235.443 122.232 232.607 123.13L232.456 123.079C228.661 124.316 225.513 127.009 223.704 130.563C221.895 134.118 221.573 138.245 222.809 142.034C223.713 144.865 225.436 147.364 227.761 149.216C230.086 151.068 232.909 152.189 235.873 152.438C238.837 152.687 241.809 152.053 244.413 150.616C247.018 149.179 249.138 147.003 250.506 144.363C251.874 141.723 252.429 138.738 252.1 135.785C251.77 132.832 250.573 130.043 248.657 127.771C246.742 125.499 244.195 123.845 241.338 123.019Z" fill="#4DBA87"/>
</svg>
